<svg xmlns="http://www.w3.org/2000/svg" width="16" height="16" viewBox="0 0 12 12"><path d="M4.016 9.313c0 .046-.059.085-.13.085-.077.008-.132-.03-.132-.085 0-.047.055-.083.125-.083.07-.007.137.032.137.082zm-.754-.106c-.016.047.031.102.105.117.063.024.133 0 .149-.047.015-.047-.032-.101-.106-.12-.062-.02-.133.003-.148.05zm1.07-.039c-.07.016-.121.062-.113.117.008.047.07.074.144.059.07-.016.117-.059.11-.106-.008-.047-.07-.078-.141-.07zm1.59-8.98C2.566.188 0 2.655 0 5.905c0 2.598 1.688 4.824 4.102 5.606.308.054.418-.13.418-.282 0-.148-.008-.949-.008-1.44 0 0-1.692.35-2.047-.7 0 0-.277-.68-.676-.856 0 0-.555-.367.04-.363 0 0 .6.047.933.606.531.906 1.418.644 1.765.492.055-.375.211-.637.387-.793-1.351-.145-2.719-.332-2.719-2.59 0-.645.184-.965.575-1.379-.067-.152-.27-.781.062-1.59.504-.152 1.668.633 1.668.633a5.792 5.792 0 011.52-.2c.515 0 1.035.067 1.52.2 0 0 1.163-.79 1.667-.633.332.813.125 1.438.063 1.59.386.414.625.738.625 1.379 0 2.262-1.426 2.445-2.778 2.59.223.187.41.539.41 1.09 0 .789-.004 1.765-.004 1.957 0 .152.11.34.418.285C10.36 10.73 12 8.504 12 5.906 12 2.656 9.277.188 5.922.188zM2.352 8.27c-.032.023-.024.078.015.125.04.035.098.05.13.023.03-.023.023-.078-.02-.125-.04-.035-.094-.05-.125-.023zm-.262-.188c-.016.031.008.066.055.09.039.023.09.015.105-.016.016-.031-.008-.066-.055-.09-.05-.015-.09-.007-.105.016zm.785.832c-.04.031-.023.102.031.149.055.05.125.058.156.023.032-.031.016-.102-.03-.149-.055-.05-.126-.058-.157-.023zm-.277-.344c-.04.024-.04.086 0 .14.039.052.105.075.136.052.04-.028.04-.09 0-.145-.035-.055-.097-.078-.136-.047zm0 0"/></svg>