<svg xmlns="http://www.w3.org/2000/svg" width="16" height="16" viewBox="0 0 12 12"><path d="M10.766 3.555c.007.11.007.215.007.32 0 3.25-2.472 7-6.996 7A6.964 6.964 0 010 9.77c.2.023.387.03.594.03 1.148 0 2.207-.39 3.054-1.05a2.464 2.464 0 01-2.3-1.707 2.568 2.568 0 001.113-.047A2.457 2.457 0 01.488 4.582v-.027c.328.18.707.297 1.11.312a2.462 2.462 0 01-1.094-2.05c0-.458.121-.876.332-1.243A6.977 6.977 0 005.91 4.148a2.669 2.669 0 01-.062-.562 2.46 2.46 0 014.257-1.684 4.829 4.829 0 001.56-.593c-.185.57-.571 1.05-1.083 1.355.496-.05.977-.187 1.418-.379a5.22 5.22 0 01-1.234 1.27zm0 0"/></svg>