<svg xmlns="http://www.w3.org/2000/svg" width="16" height="16" viewBox="0 0 12 12"><path d="M10.125 7.5h-.75A.375.375 0 009 7.875V10.5H1.5V3h3.375a.375.375 0 00.375-.375v-.75a.375.375 0 00-.375-.375h-3.75C.504 1.5 0 2.004 0 2.625v8.25C0 11.496.504 12 1.125 12h8.25c.621 0 1.125-.504 1.125-1.125v-3a.375.375 0 00-.375-.375zM11.438 0h-3c-.5 0-.75.605-.399.96l.836.837-5.71 5.71a.565.565 0 000 .798l.53.53a.565.565 0 00.797 0l5.711-5.71.836.836c.352.352.961.105.961-.398v-3A.56.56 0 0011.437 0zm0 0"/></svg>