<svg xmlns="http://www.w3.org/2000/svg" width="18" height="18"><g fill-rule="evenodd" fill="#8C8C8C"><path d="M9 5C10.4 5 11.5 3.9 11.5 2.5 11.5 1.1 10.4 0 9 0 7.6 0 6.5 1.1 6.5 2.5 6.5 3.9 7.6 5 9 5ZM9 18C10.4 18 11.5 16.9 11.5 15.5 11.5 14.1 10.4 13 9 13 7.6 13 6.5 14.1 6.5 15.5 6.5 16.9 7.6 18 9 18ZM2.5 11.5C3.9 11.5 5 10.4 5 9 5 7.6 3.9 6.5 2.5 6.5 1.1 6.5 0 7.6 0 9 0 10.4 1.1 11.5 2.5 11.5ZM15.5 11.5C16.9 11.5 18 10.4 18 9 18 7.6 16.9 6.5 15.5 6.5 14.1 6.5 13 7.6 13 9 13 10.4 14.1 11.5 15.5 11.5ZM9 12C10.7 12 12 10.7 12 9 12 7.3 10.7 6 9 6 7.3 6 6 7.3 6 9 6 10.7 7.3 12 9 12Z" fill-opacity="0.2"/><path d="M9 5C10.4 5 11.5 3.9 11.5 2.5 11.5 1.1 10.4 0 9 0 7.6 0 6.5 1.1 6.5 2.5 6.5 3.9 7.6 5 9 5ZM9 4C9.8 4 10.5 3.3 10.5 2.5 10.5 1.7 9.8 1 9 1 8.2 1 7.5 1.7 7.5 2.5 7.5 3.3 8.2 4 9 4ZM9 18C10.4 18 11.5 16.9 11.5 15.5 11.5 14.1 10.4 13 9 13 7.6 13 6.5 14.1 6.5 15.5 6.5 16.9 7.6 18 9 18ZM9 17C9.8 17 10.5 16.3 10.5 15.5 10.5 14.7 9.8 14 9 14 8.2 14 7.5 14.7 7.5 15.5 7.5 16.3 8.2 17 9 17ZM2.5 11.5C3.9 11.5 5 10.4 5 9 5 7.6 3.9 6.5 2.5 6.5 1.1 6.5 0 7.6 0 9 0 10.4 1.1 11.5 2.5 11.5ZM2.5 10.5C3.3 10.5 4 9.8 4 9 4 8.2 3.3 7.5 2.5 7.5 1.7 7.5 1 8.2 1 9 1 9.8 1.7 10.5 2.5 10.5ZM15.5 11.5C16.9 11.5 18 10.4 18 9 18 7.6 16.9 6.5 15.5 6.5 14.1 6.5 13 7.6 13 9 13 10.4 14.1 11.5 15.5 11.5ZM15.5 10.5C16.3 10.5 17 9.8 17 9 17 8.2 16.3 7.5 15.5 7.5 14.7 7.5 14 8.2 14 9 14 9.8 14.7 10.5 15.5 10.5ZM9 12C10.7 12 12 10.7 12 9 12 7.3 10.7 6 9 6 7.3 6 6 7.3 6 9 6 10.7 7.3 12 9 12ZM9 11C10.1 11 11 10.1 11 9 11 7.9 10.1 7 9 7 7.9 7 7 7.9 7 9 7 10.1 7.9 11 9 11Z"/><path d="M3.7 5.8C4.9 5.8 5.8 4.9 5.8 3.7 5.8 2.5 4.9 1.6 3.7 1.6 2.5 1.6 1.6 2.5 1.6 3.7 1.6 4.9 2.5 5.8 3.7 5.8ZM14.3 5.8C15.5 5.8 16.4 4.9 16.4 3.7 16.4 2.5 15.5 1.6 14.3 1.6 13.1 1.6 12.2 2.5 12.2 3.7 12.2 4.9 13.1 5.8 14.3 5.8ZM14.3 16.4C15.5 16.4 16.4 15.5 16.4 14.3 16.4 13.1 15.5 12.2 14.3 12.2 13.1 12.2 12.2 13.1 12.2 14.3 12.2 15.5 13.1 16.4 14.3 16.4ZM3.7 16.4C4.9 16.4 5.8 15.5 5.8 14.3 5.8 13.1 4.9 12.2 3.7 12.2 2.5 12.2 1.6 13.1 1.6 14.3 1.6 15.5 2.5 16.4 3.7 16.4Z" fill-opacity="0.1"/><path d="M3.7 5.8C4.9 5.8 5.8 4.9 5.8 3.7 5.8 2.5 4.9 1.6 3.7 1.6 2.5 1.6 1.6 2.5 1.6 3.7 1.6 4.9 2.5 5.8 3.7 5.8ZM3.7 4.8C4.3 4.8 4.8 4.3 4.8 3.7 4.8 3.1 4.3 2.6 3.7 2.6 3.1 2.6 2.6 3.1 2.6 3.7 2.6 4.3 3.1 4.8 3.7 4.8ZM14.3 5.8C15.5 5.8 16.4 4.9 16.4 3.7 16.4 2.5 15.5 1.6 14.3 1.6 13.1 1.6 12.2 2.5 12.2 3.7 12.2 4.9 13.1 5.8 14.3 5.8ZM14.3 4.8C14.9 4.8 15.4 4.3 15.4 3.7 15.4 3.1 14.9 2.6 14.3 2.6 13.7 2.6 13.2 3.1 13.2 3.7 13.2 4.3 13.7 4.8 14.3 4.8ZM14.3 16.4C15.5 16.4 16.4 15.5 16.4 14.3 16.4 13.1 15.5 12.2 14.3 12.2 13.1 12.2 12.2 13.1 12.2 14.3 12.2 15.5 13.1 16.4 14.3 16.4ZM14.3 15.4C14.9 15.4 15.4 14.9 15.4 14.3 15.4 13.7 14.9 13.2 14.3 13.2 13.7 13.2 13.2 13.7 13.2 14.3 13.2 14.9 13.7 15.4 14.3 15.4ZM3.7 16.4C4.9 16.4 5.8 15.5 5.8 14.3 5.8 13.1 4.9 12.2 3.7 12.2 2.5 12.2 1.6 13.1 1.6 14.3 1.6 15.5 2.5 16.4 3.7 16.4ZM3.7 15.4C4.3 15.4 4.8 14.9 4.8 14.3 4.8 13.7 4.3 13.2 3.7 13.2 3.1 13.2 2.6 13.7 2.6 14.3 2.6 14.9 3.1 15.4 3.7 15.4Z"/></g></svg>
