<svg xmlns="http://www.w3.org/2000/svg" width="18" height="18"><g fill-rule="evenodd" fill="#8C8C8C"><path d="M8 2L2 2C0.9 2 0 2.9 0 4L0 14C0 15.1 0.9 16 2 16L16 16C17.1 16 18 15.1 18 14L18 4C18 2.9 17.1 2 16 2L10 2 10 3C10 3.6 9.6 4 9 4 8.4 4 8 3.6 8 3L8 2Z" fill-opacity="0.2"/><path d="M8 2L2 2C0.9 2 0 2.9 0 4L0 14C0 15.1 0.9 16 2 16L16 16C17.1 16 18 15.1 18 14L18 4C18 2.9 17.1 2 16 2L10 2 10 3 16 3C16.6 3 17 3.5 17 4L17 14C17 14.6 16.6 15 16 15L2 15C1.4 15 1 14.5 1 14L1 4C1 3.4 1.4 3 2 3L8 3 8 2Z"/><path d="M9 12.5C9 12.2 9.2 12 9.5 12L12.5 12C12.8 12 13 12.2 13 12.5 13 12.8 12.8 13 12.5 13L9.5 13C9.2 13 9 12.8 9 12.5ZM9 10.5C9 10.2 9.2 10 9.5 10L11.5 10C11.8 10 12 10.2 12 10.5 12 10.8 11.8 11 11.5 11L9.5 11C9.2 11 9 10.8 9 10.5ZM9 6.5C9 6.2 9.2 6 9.5 6L14.5 6C14.8 6 15 6.2 15 6.5 15 6.8 14.8 7 14.5 7L9.5 7C9.2 7 9 6.8 9 6.5Z"/><rect x="3" y="5" width="4" height="8" rx="1"/><path d="M7 2C7 0.9 7.9 0 9 0 10.1 0 11 0.9 11 2L11 3C11 4.1 10.1 5 9 5 7.9 5 7 4.1 7 3L7 2ZM8 2C8 1.4 8.4 1 9 1 9.6 1 10 1.4 10 2L10 3C10 3.6 9.6 4 9 4 8.4 4 8 3.6 8 3L8 2Z"/></g></svg>
