<svg xmlns="http://www.w3.org/2000/svg" width="18" height="18"><g fill-rule="evenodd" fill="#8C8C8C"><rect fill-opacity="0.2" x="1" y="1" width="16" height="16" rx="3"/><path d="M1 5C1 2.8 2.8 1 5 1L13 1C15.2 1 17 2.8 17 5L17 13C17 15.2 15.2 17 13 17L5 17C2.8 17 1 15.2 1 13L1 5ZM2 5C2 3.3 3.3 2 5 2L13 2C14.7 2 16 3.3 16 5L16 13C16 14.7 14.7 16 13 16L5 16C3.3 16 2 14.7 2 13L2 5ZM10.1 9.6C11 9.2 11.6 8.3 11.6 7.3 11.6 5.9 10.4 4.7 9 4.7 7.6 4.7 6.4 5.9 6.4 7.3 6.4 8.3 7 9.2 7.9 9.6L7.9 13.6 10.1 13.6 10.1 9.6Z"/></g></svg>
