<svg width="44" height="44" viewBox="0 0 44 44" fill="none" xmlns="http://www.w3.org/2000/svg"><path fill-rule="evenodd" clip-rule="evenodd" d="M.759 22c0 11.732 9.51 21.241 21.24 21.241 11.732 0 21.242-9.51 21.242-21.241S33.731.759 22 .759.759 10.269.759 22z" fill="#fff"/><path fill-rule="evenodd" clip-rule="evenodd" d="M22 5.31c9.217 0 16.69 7.473 16.69 16.69 0 9.218-7.473 16.69-16.69 16.69-9.217 0-16.69-7.472-16.69-16.69 0-9.217 7.473-16.69 16.69-16.69z" fill="#1A8CFF"/><path opacity=".5" fill-rule="evenodd" clip-rule="evenodd" d="M22 44C9.85 44 0 34.15 0 22S9.85 0 22 0s22 9.85 22 22-9.85 22-22 22zM22 .759C10.267.759.759 10.27.759 22S10.267 43.241 22 43.241 43.241 33.731 43.241 22C43.241 10.27 33.733.759 22 .759z" fill="#000"/><path fill-rule="evenodd" clip-rule="evenodd" d="M40.586 21.62c0-10.264-8.321-18.586-18.586-18.586-10.265 0-18.586 8.322-18.586 18.587 0 5.738 2.6 10.87 6.688 14.279a17.4 17.4 0 01-5.55-12.762C4.552 13.5 12.364 5.69 22 5.69s17.448 7.81 17.448 17.448a17.4 17.4 0 01-5.55 12.762c4.087-3.41 6.688-8.54 6.688-14.28zm2.655.38c0-.382-.01-.761-.03-1.138l-.015.259C42.476 32.2 33.262 40.966 22 40.966c-11.35 0-20.62-8.902-21.211-20.104-.02.377-.03.756-.03 1.138 0 11.731 9.51 21.241 21.24 21.241 11.732 0 21.242-9.51 21.242-21.241z" fill="#000" fill-opacity=".052"/><path opacity=".256" fill-rule="evenodd" clip-rule="evenodd" d="M22 5.31C12.781 5.31 5.31 12.784 5.31 22c0 9.216 7.471 16.69 16.69 16.69 9.219 0 16.69-7.474 16.69-16.69 0-9.216-7.471-16.69-16.69-16.69zm0 32.621c-8.798 0-15.931-7.132-15.931-15.931 0-8.798 7.133-15.931 15.931-15.931 8.798 0 15.931 7.133 15.931 15.931 0 8.799-7.133 15.931-15.931 15.931z" fill="#000"/><path fill-rule="evenodd" clip-rule="evenodd" d="M8.724 22.084c0-7.416 5.944-13.36 13.36-13.36 7.275 0 13.192 5.972 13.192 13.36 0 7.248-5.944 13.192-13.192 13.192-7.388 0-13.36-5.916-13.36-13.192zm25.793 0c0-6.997-5.604-12.601-12.433-12.601A12.554 12.554 0 009.483 22.084c0 6.83 5.604 12.433 12.601 12.433 6.829 0 12.433-5.604 12.433-12.433z" fill="#000" fill-opacity=".25"/><path fill-rule="evenodd" clip-rule="evenodd" d="M22.084 9.483c6.829 0 12.433 5.604 12.433 12.601 0 6.83-5.604 12.433-12.433 12.433-6.997 0-12.601-5.604-12.601-12.433a12.553 12.553 0 0112.6-12.601z" fill="#F7F7F7"/><path fill-rule="evenodd" clip-rule="evenodd" d="M27.69 22a5.69 5.69 0 11-11.38 0 5.69 5.69 0 0111.38 0z" fill="#000" fill-opacity=".05"/><path fill-rule="evenodd" clip-rule="evenodd" d="M15.552 22a6.448 6.448 0 1112.896 0 6.448 6.448 0 01-12.896 0zm12.138 0a5.69 5.69 0 10-11.38 0 5.69 5.69 0 0011.38 0z" fill="#fff"/><path fill-rule="evenodd" clip-rule="evenodd" d="M27.69 22a5.69 5.69 0 10-11.38 0 5.69 5.69 0 0011.38 0zm-10.621 0a4.931 4.931 0 119.862 0 4.931 4.931 0 01-9.862 0z" fill="#000" fill-opacity=".15"/><path fill-rule="evenodd" clip-rule="evenodd" d="M19.884 12.138h4.231c.938 0 1.678.821 1.678 1.81v8.55c0 .371-.134.731-.378 1.001l-.622.69c-.014.016-.014.061 0 .078l.622.69c.244.27.378.63.378 1.002v4.093c0 .989-.74 1.81-1.678 1.81h-4.23c-.938 0-1.678-.821-1.678-1.81v-8.55a1.5 1.5 0 01.377-1.001l.622-.69c.015-.016.015-.061 0-.078l-.622-.69a1.498 1.498 0 01-.377-1.001v-4.094c0-.989.74-1.81 1.677-1.81zm5.15 1.869c0-.605-.433-1.096-.967-1.096h-4.134c-.535 0-.968.49-.968 1.096v4.062c0 .194.068.38.19.517l.604.685a.801.801 0 010 1.034l-.605.685a.783.783 0 00-.189.516v8.487c0 .605.433 1.096.968 1.096h4.134c.534 0 .967-.49.967-1.096v-4.062a.783.783 0 00-.188-.517l-.605-.685a.801.801 0 010-1.034l.605-.685a.783.783 0 00.188-.516v-8.487z" fill="#fff"/><path fill-rule="evenodd" clip-rule="evenodd" d="M18.965 18.063v-4.068c0-.607.433-1.098.968-1.098h4.134c.534 0 .967.491.967 1.098v8.5c0 .194-.068.38-.189.517l-.604.686a.803.803 0 000 1.035l.604.686a.784.784 0 01.19.518v4.069c0 .606-.434 1.098-.968 1.098h-4.134c-.535 0-.968-.492-.968-1.098v-8.5c0-.195.068-.38.19-.518l.604-.686a.803.803 0 000-1.035l-.605-.686a.785.785 0 01-.189-.518z" fill="#0A2D4D"/><path fill-rule="evenodd" clip-rule="evenodd" d="M25.034 13.995c0-.607-.433-1.098-.967-1.098h-4.134c-.535 0-.968.491-.968 1.098v4.068c0 .194.068.38.19.518l.604.686a.803.803 0 010 1.035l-.605.686a.785.785 0 00-.189.518v8.5c0 .606.433 1.098.968 1.098h4.134c.534 0 .967-.492.967-1.098v-4.069a.784.784 0 00-.189-.518l-.604-.686a.803.803 0 010-1.035l.604-.686a.785.785 0 00.19-.517v-8.5zm-4.992-.324l3.916.005.032.002c.152.02.286.178.286.39v8.428l-.002.016a.047.047 0 01-.01.022l-.633.68-.051.059a1.463 1.463 0 00.051 1.918l.634.68.005.01a.074.074 0 01.006.029v4.032l-.002.045c-.019.204-.163.347-.316.347l-3.916-.005-.033-.002c-.151-.02-.285-.178-.285-.39V21.51l.002-.017a.05.05 0 01.009-.022l.633-.68.052-.058a1.463 1.463 0 00-.052-1.92l-.633-.68-.005-.008a.074.074 0 01-.006-.03v-4.032l.002-.045c.018-.203.163-.347.316-.347z" fill="#000" fill-opacity=".4"/></svg>
