<svg width="32" height="32" class="svg-notifications"><defs><mask id="a" width="28" height="23" x="0" y="0" fill="#fff"><path stroke-width="2" d="M19.5 6.7c3.7 1.5 6.4 5 6.4 9.3v3c0 2 1.3 6 4 6H2c3 0 4-4.2 4-6v-3c0-4.2 2.8-8 6.5-9.3V5.5C12.5 3.5 14 2 16 2s3.5 1.6 3.5 3.5v1.2z" stroke="#000" stroke-opacity="0.3"></path></mask></defs><g fill="none" fill-rule="evenodd"><path stroke-width="2" d="M19.5 6.7c3.7 1.5 6.4 5 6.4 9.3v3c0 2 1.3 6 4 6H2c3 0 4-4.2 4-6v-3c0-4.2 2.8-8 6.5-9.3V5.5C12.5 3.5 14 2 16 2s3.5 1.6 3.5 3.5v1.2z" stroke="#000" stroke-opacity="0.3" mask="url(#a)"></path><path stroke-width="6" d="M20 26c0 2.2-1.8 4-4 4s-4-1.8-4-4h8z" fill="#000" fill-opacity="0.3"></path></g></svg>