<svg xmlns="http://www.w3.org/2000/svg" width="18" height="18"><g fill-rule="evenodd" fill="#8C8C8C"><path d="M1 8.1C1 8.6 1.2 9.1 1.6 9.6L9.4 17.4C10.2 18.2 11.5 18.2 12.2 17.4L17.4 12.2C18.2 11.5 18.2 10.2 17.4 9.4L9.6 1.6C9.1 1.2 8.6 1 8.1 1 8.1 1 3 1 3 1 1.9 1 1 1.9 1 3L1 8.1ZM5.5 6.5C6.1 6.5 6.5 6.1 6.5 5.5 6.5 4.9 6.1 4.5 5.5 4.5 4.9 4.5 4.5 4.9 4.5 5.5 4.5 6.1 4.9 6.5 5.5 6.5Z" fill-opacity="0.2"/><path d="M2 8.1L2 8.1 2 8.1C2 8.4 2.1 8.7 2.3 8.8L10.2 16.7C10.5 17.1 11.2 17.1 11.5 16.7L16.7 11.5C17.1 11.2 17.1 10.5 16.7 10.2L8.8 2.3C8.7 2.1 8.4 2 8 2 8.1 2 6.5 2 5.5 2 4.6 2 4.6 2 3.8 2 3.2 2 3.2 2 3 2 2.4 2 2 2.4 2 3L2 8.1ZM1 8.1L1 8.1 1 3C1 1.9 1.9 1 3 1 3 1 8.1 1 8.1 1 8.6 1 9.1 1.2 9.6 1.6L17.4 9.4C18.2 10.2 18.2 11.5 17.4 12.2L12.2 17.4C11.5 18.2 10.2 18.2 9.4 17.4L1.6 9.6C1.2 9.1 1 8.6 1 8.1L1 8.1Z"/><path d="M5.5 7.5C6.6 7.5 7.5 6.6 7.5 5.5 7.5 4.4 6.6 3.5 5.5 3.5 4.4 3.5 3.5 4.4 3.5 5.5 3.5 6.6 4.4 7.5 5.5 7.5ZM5.5 6.5C6.1 6.5 6.5 6.1 6.5 5.5 6.5 4.9 6.1 4.5 5.5 4.5 4.9 4.5 4.5 4.9 4.5 5.5 4.5 6.1 4.9 6.5 5.5 6.5Z"/></g></svg>
